<svg xmlns="http://www.w3.org/2000/svg" width="520" height="310" viewBox="0 0 520 310" role="img" aria-labelledby="title desc">
<title id="title">楔块与匀质圆球</title><desc id="desc">圆球与向右上方升高的楔块斜面相切，楔块置于水平地面，倾角为 θ。</desc>
<defs><marker id="arrow" viewBox="0 0 10 8" refX="9" refY="4" markerWidth="7" markerHeight="6" orient="auto-start-reverse"><path d="M0 0 10 4 0 8Z" fill="#1a1a1a" stroke="none"/></marker></defs>
<style> .line{fill:none;stroke:#1a1a1a;stroke-width:2;stroke-linecap:round;stroke-linejoin:round} text{fill:#1a1a1a;stroke:none;font-family:"Times New Roman","STIX Two Text",serif;font-size:23px;font-style:italic} .cn{font-family:"PingFang SC","Noto Sans CJK SC",sans-serif;font-size:20px;font-style:normal} .sub{font-size:15px;font-style:normal} </style>
<path class="line" d="M35 270L485 270" style="stroke-width:3"/><path class="line" d="M45 270L35 283" style="stroke-width:1.3"/><path class="line" d="M59 270L49 283" style="stroke-width:1.3"/><path class="line" d="M73 270L63 283" style="stroke-width:1.3"/><path class="line" d="M87 270L77 283" style="stroke-width:1.3"/><path class="line" d="M101 270L91 283" style="stroke-width:1.3"/><path class="line" d="M115 270L105 283" style="stroke-width:1.3"/><path class="line" d="M129 270L119 283" style="stroke-width:1.3"/><path class="line" d="M143 270L133 283" style="stroke-width:1.3"/><path class="line" d="M157 270L147 283" style="stroke-width:1.3"/><path class="line" d="M171 270L161 283" style="stroke-width:1.3"/><path class="line" d="M185 270L175 283" style="stroke-width:1.3"/><path class="line" d="M199 270L189 283" style="stroke-width:1.3"/><path class="line" d="M213 270L203 283" style="stroke-width:1.3"/><path class="line" d="M227 270L217 283" style="stroke-width:1.3"/><path class="line" d="M241 270L231 283" style="stroke-width:1.3"/><path class="line" d="M255 270L245 283" style="stroke-width:1.3"/><path class="line" d="M269 270L259 283" style="stroke-width:1.3"/><path class="line" d="M283 270L273 283" style="stroke-width:1.3"/><path class="line" d="M297 270L287 283" style="stroke-width:1.3"/><path class="line" d="M311 270L301 283" style="stroke-width:1.3"/><path class="line" d="M325 270L315 283" style="stroke-width:1.3"/><path class="line" d="M339 270L329 283" style="stroke-width:1.3"/><path class="line" d="M353 270L343 283" style="stroke-width:1.3"/><path class="line" d="M367 270L357 283" style="stroke-width:1.3"/><path class="line" d="M381 270L371 283" style="stroke-width:1.3"/><path class="line" d="M395 270L385 283" style="stroke-width:1.3"/><path class="line" d="M409 270L399 283" style="stroke-width:1.3"/><path class="line" d="M423 270L413 283" style="stroke-width:1.3"/><path class="line" d="M437 270L427 283" style="stroke-width:1.3"/><path class="line" d="M451 270L441 283" style="stroke-width:1.3"/><path class="line" d="M465 270L455 283" style="stroke-width:1.3"/><path class="line" d="M479 270L469 283" style="stroke-width:1.3"/><path class="line" d="M100 270L405 115L405 270Z" /><circle class="line" cx="349" cy="100.834" r="38" /><path class="line" d="M152 270 A52 52 0 0 0 146.36 246.44" /><text x="164" y="258" text-anchor="middle">θ</text>
</svg>
